<svg width="25" height="25" viewBox="0 0 25 25" fill="none" xmlns="http://www.w3.org/2000/svg">
<path d="M17 0C18.6569 0 20 1.34315 20 3V12.0723C19.6733 12.0255 19.3396 12 19 12C18.6604 12 18.3267 12.0255 18 12.0723V10H16.0996C15.6049 10.0001 15.0497 10.2647 14.707 10.6074C14.6836 10.6308 14.6585 10.6528 14.6328 10.6738L13.5557 11.5547C11.581 13.4784 8.52394 13.4798 6.54785 11.5586L5.4668 10.6738C5.41769 10.6336 5.37266 10.5888 5.33203 10.54C5.06298 10.2172 4.57375 10 4 10H2V17C2 17.5523 2.44771 18 3 18H12.0723C12.0255 18.3267 12 18.6604 12 19C12 19.3396 12.0255 19.6733 12.0723 20H3C1.34315 20 0 18.6569 0 17V3C0 1.34315 1.34315 0 3 0H17ZM3 6C2.73478 6 2.48051 6.10543 2.29297 6.29297C2.10543 6.48051 2 6.73478 2 7V8H4C4.99065 8 6.05856 8.35815 6.78906 9.17188L7.83301 10.0264L7.90723 10.0928C9.1167 11.3022 10.9839 11.3022 12.1934 10.0928L12.2666 10.0264L13.3418 9.14648C14.0011 8.5111 15.0211 8.00012 16.0996 8H18V7C18 6.73478 17.8946 6.48051 17.707 6.29297C17.5429 6.12883 17.3276 6.02757 17.0986 6.00488L17 6H3ZM3 2C2.44772 2 2 2.44772 2 3V4.1748C2.3185 4.06206 2.65569 4 3 4H17C17.3443 4 17.6815 4.06206 18 4.1748V3C18 2.44771 17.5523 2 17 2H3Z" fill="currentColor"/>
<path d="M17 19H21M19 17V21M24 19C24 21.7614 21.7614 24 19 24C16.2386 24 14 21.7614 14 19C14 16.2386 16.2386 14 19 14C21.7614 14 24 16.2386 24 19Z" stroke="currentColor" stroke-width="1.33333" stroke-linecap="round" stroke-linejoin="round"/>
</svg>
