<svg width="24" height="24" viewBox="0 0 24 24" fill="none" xmlns="http://www.w3.org/2000/svg">
<path d="M16.722 18.5366H20.3512M18.5366 16.722V20.3512M23.0732 18.5366C23.0732 21.0421 21.0421 23.0732 18.5366 23.0732C16.0311 23.0732 14 21.0421 14 18.5366C14 16.0311 16.0311 14 18.5366 14C21.0421 14 23.0732 16.0311 23.0732 18.5366Z" stroke="#E6E6E6" stroke-width="1.33333" stroke-linecap="round" stroke-linejoin="round"/>
<path d="M10.1719 0C10.9674 0.000169916 11.7305 0.316364 12.293 0.878906L20.999 9.58496C21.6368 10.2268 21.9951 11.0951 21.9951 12C21.9951 12.3197 21.9483 12.6343 21.8623 12.9365C21.2882 12.5888 20.6558 12.3289 19.9834 12.1719C19.9903 12.1151 19.9951 12.0578 19.9951 12C19.9951 11.6244 19.8471 11.264 19.583 10.9971L10.8789 2.29297C10.7148 2.12884 10.4994 2.02764 10.2705 2.00488L10.1719 2H3C2.73478 2 2.4805 2.10543 2.29297 2.29297C2.10543 2.4805 2 2.73478 2 3V10.1719L2.00488 10.2705C2.02764 10.4994 2.12884 10.7148 2.29297 10.8789L10.9951 19.5811L11.0996 19.6748C11.3529 19.881 11.6705 19.9951 12 19.9951C12.0578 19.9951 12.1151 19.9903 12.1719 19.9834C12.3289 20.6558 12.5888 21.2882 12.9365 21.8623C12.6343 21.9483 12.3197 21.9951 12 21.9951C11.0951 21.9951 10.2268 21.6368 9.58496 20.999L0.878906 12.293C0.316364 11.7305 0.000169916 10.9674 0 10.1719V3C0 2.20435 0.316297 1.44152 0.878906 0.878906C1.44152 0.316297 2.20435 0 3 0H10.1719ZM6.5 5C7.32843 5 8 5.67157 8 6.5C8 7.32843 7.32843 8 6.5 8C5.67157 8 5 7.32843 5 6.5C5 5.67157 5.67157 5 6.5 5Z" fill="#E6E6E6"/>
</svg>
