<svg width="22" height="23" viewBox="0 0 22 23" fill="none" xmlns="http://www.w3.org/2000/svg">
<path d="M4.29297 10.293C4.68349 9.90245 5.31651 9.90245 5.70703 10.293C6.09752 10.6835 6.09754 11.3165 5.70703 11.707L3.41406 14H9.6748C9.37938 14.6218 9.1733 15.2938 9.07227 16H3.41406L5.70703 18.293C6.09752 18.6835 6.09754 19.3165 5.70703 19.707C5.31652 20.0975 4.68348 20.0975 4.29297 19.707L0.292969 15.707C-0.097543 15.3165 -0.0975178 14.6835 0.292969 14.293L4.29297 10.293ZM12.293 0.29297C12.6835 -0.0975548 13.3165 -0.0975548 13.707 0.29297L17.707 4.29297C18.0975 4.6835 18.0975 5.31652 17.707 5.70703L13.707 9.70703C13.3165 10.0975 12.6835 10.0975 12.293 9.70703C11.9025 9.31652 11.9025 8.6835 12.293 8.29297L14.5859 6H1C0.44774 6 4.08113e-05 5.55225 0 5C0 4.44772 0.447715 4 1 4H14.5859L12.293 1.70703C11.9025 1.31652 11.9025 0.683497 12.293 0.29297Z" fill="currentColor"/>
<path d="M14 17H18M16 15V19M21 17C21 19.7614 18.7614 22 16 22C13.2386 22 11 19.7614 11 17C11 14.2386 13.2386 12 16 12C18.7614 12 21 14.2386 21 17Z" stroke="currentColor" stroke-width="1.33333" stroke-linecap="round" stroke-linejoin="round"/>
</svg>
