<svg width="92" height="92" viewBox="0 0 92 92" fill="none" xmlns="http://www.w3.org/2000/svg">
<path d="M39.594 70.0783C39.594 66.0783 37.5 63.5783 34.5 66.0783L25.4305 75.2911C24.2617 76.4783 22.3494 76.4858 21.1713 75.3078L16.8287 70.9651C15.6344 69.7708 15.6609 67.8265 16.8874 66.6653L30.4797 53.7961C31.6597 52.6789 33.5146 52.7043 34.6636 53.8533L48.9132 68.1029C50.7886 69.9783 51.8422 72.5218 51.8422 75.174V88.5783C51.8422 90.2352 50.499 91.5783 48.8422 91.5783H42.594C40.9371 91.5783 39.594 90.2352 39.594 88.5783V70.0783Z" fill="#2196F3"/>
<path d="M52.0546 21.5C52.0546 25.5 54.1486 28 57.1486 25.5L66.218 16.2872C67.3868 15.1 69.2992 15.0925 70.4772 16.2705L74.8199 20.6132C76.0142 21.8075 75.9876 23.7518 74.7612 24.913L61.1689 37.7822C59.9889 38.8994 58.134 38.874 56.985 37.725L42.7353 23.4754C40.86 21.6 39.8064 19.0565 39.8064 16.4043V3C39.8064 1.34315 41.1495 0 42.8064 0H49.0546C50.7114 0 52.0546 1.34315 52.0546 3V21.5Z" fill="#2EB88A"/>
<path d="M21.5 39.594C25.5 39.594 28 37.5 25.5 34.5L16.2872 25.4305C15.1 24.2617 15.0925 22.3494 16.2705 21.1713L20.6132 16.8287C21.8075 15.6344 23.7518 15.661 24.913 16.8874L37.7822 30.4797C38.8994 31.6597 38.874 33.5146 37.725 34.6636L23.4754 48.9132C21.6 50.7886 19.0565 51.8422 16.4043 51.8422H3C1.34315 51.8422 0 50.499 0 48.8422V42.594C0 40.9371 1.34315 39.594 3 39.594H21.5Z" fill="#FF9800"/>
<path d="M70.0783 52.0546C66.0783 52.0546 63.5783 54.1486 66.0783 57.1486L75.2911 66.218C76.4783 67.3868 76.4858 69.2991 75.3078 70.4772L70.9651 74.8199C69.7708 76.0142 67.8265 75.9876 66.6653 74.7612L53.7961 61.1689C52.6789 59.9889 52.7043 58.134 53.8533 56.985L68.1029 42.7353C69.9783 40.86 72.5218 39.8064 75.174 39.8064H88.5783C90.2352 39.8064 91.5783 41.1495 91.5783 42.8064V49.0546C91.5783 50.7114 90.2352 52.0546 88.5783 52.0546H70.0783Z" fill="#FF4457"/>
</svg>
