<svg width="118" height="118" viewBox="0 0 118 118" fill="none" xmlns="http://www.w3.org/2000/svg">
<path d="M54 0H27C12.0883 0 0 12.0883 0 27V27C0 41.9117 12.0883 54 27 54V54C41.9117 54 54 41.9117 54 27V0Z" fill="#2EB88A"/>
<path d="M118 54H91C76.0883 54 64 41.9117 64 27V27C64 12.0883 76.0883 0 91 0V0C105.912 0 118 12.0883 118 27V54Z" fill="#FF4457"/>
<path d="M64 118H91C105.912 118 118 105.912 118 91V91C118 76.0883 105.912 64 91 64V64C76.0883 64 64 76.0883 64 91V118Z" fill="#FF9800"/>
<path d="M0 64H27C41.9117 64 54 76.0883 54 91V91C54 105.912 41.9117 118 27 118V118C12.0883 118 0 105.912 0 91V64Z" fill="#2196F3"/>
</svg>
