<svg width="92" height="92" viewBox="0 0 92 92" fill="none" xmlns="http://www.w3.org/2000/svg">
<path d="M70.0783 52.406C66.0783 52.406 63.5783 54.5 66.0783 57.5L75.2911 66.5695C76.4783 67.7383 76.4858 69.6506 75.3078 70.8287L70.9651 75.1713C69.7708 76.3656 67.8265 76.339 66.6653 75.1126L53.7961 61.5203C52.6789 60.3403 52.7043 58.4854 53.8533 57.3364L68.1029 43.0868C69.9783 41.2114 72.5218 40.1578 75.174 40.1578H88.5783C90.2352 40.1578 91.5783 41.501 91.5783 43.1578V49.406C91.5783 51.0629 90.2352 52.406 88.5783 52.406H70.0783Z" fill="#FF4457"/>
<path d="M21.5 39.9454C25.5 39.9454 28 37.8514 25.5 34.8514L16.2872 25.782C15.1 24.6132 15.0925 22.7008 16.2705 21.5228L20.6132 17.1801C21.8075 15.9858 23.7518 16.0124 24.913 17.2388L37.7822 30.8311C38.8994 32.0111 38.874 33.866 37.725 35.015L23.4754 49.2647C21.6 51.14 19.0565 52.1936 16.4043 52.1936H3C1.34315 52.1936 0 50.8504 0 49.1936V42.9454C0 41.2885 1.34315 39.9454 3 39.9454H21.5Z" fill="#FF9800"/>
<path d="M39.594 70.0783C39.594 66.0783 37.5 63.5783 34.5 66.0783L25.4305 75.2911C24.2617 76.4783 22.3494 76.4858 21.1713 75.3078L16.8287 70.9651C15.6344 69.7708 15.661 67.8265 16.8874 66.6653L30.4797 53.7961C31.6597 52.6789 33.5146 52.7043 34.6636 53.8533L48.9132 68.1029C50.7886 69.9783 51.8422 72.5218 51.8422 75.174V88.5783C51.8422 90.2352 50.499 91.5783 48.8422 91.5783H42.594C40.9371 91.5783 39.594 90.2352 39.594 88.5783V70.0783Z" fill="#2196F3"/>
<path d="M52.0546 21.5C52.0546 25.5 54.1486 28 57.1486 25.5L66.218 16.2872C67.3868 15.1 69.2991 15.0925 70.4772 16.2705L74.8199 20.6132C76.0142 21.8075 75.9876 23.7518 74.7612 24.913L61.1689 37.7822C59.9889 38.8994 58.134 38.874 56.985 37.725L42.7353 23.4754C40.86 21.6 39.8064 19.0565 39.8064 16.4043V3C39.8064 1.34315 41.1495 0 42.8064 0H49.0546C50.7114 0 52.0546 1.34315 52.0546 3V21.5Z" fill="#2EB88A"/>
</svg>
